# xmcd
#
# Track frame offsets: 
#        150
#        23121
#        47062
#        66199
#        89825
#        109816
#        127631
#        148157
#        167548
#        183208
#        206055
#        223874
#        240629
#        257100
#        275505
#        292826
#
# Disc length: 4146 seconds
#
# Revision: 0
# Processed by: cddbd v1.5.2PL0 Copyright (c) Steve Scherf et al.
# Submitted via: ExactAudioCopy v0.99pb4
#
DISCID=f0103010
DTITLE=Jasper - From My Perspective
DYEAR=2004
DGENRE=R&B
TTITLE0=The Way II
TTITLE1=Nobody Else
TTITLE2=Hoody Goody ft. E-40
TTITLE3=Like Me ft Waynee-Wayne
TTITLE4=Freaky With You
TTITLE5=Walk Away
TTITLE6=I Love You
TTITLE7=Close To You
TTITLE8=That' The Girl
TTITLE9=Make Me Feel Good ft. Chalandra
TTITLE10=I Would Do Anything
TTITLE11=Not Every man
TTITLE12=Let Me Be The One
TTITLE13=All About You
TTITLE14=Hips Off Da Meat Rack
TTITLE15=Wake Up (G-Cell ft. Jasper) - Bonus Track
EXTD=
EXTT0=
EXTT1=
EXTT2=
EXTT3=
EXTT4=
EXTT5=
EXTT6=
EXTT7=
EXTT8=
EXTT9=
EXTT10=
EXTT11=
EXTT12=
EXTT13=
EXTT14=
EXTT15=
PLAYORDER=
